# xmcd
#
# Track frame offsets: 
#        150
#        12917
#        27810
#        48451
#        55387
#        78503
#        111144
#        133771
#        164109
#        182420
#        199323
#        252615
#        254838
#        285083
#        308659
#        325541
#
# Disc length: 4489 seconds
#
# Revision: 0
# Processed by: cddbd v1.5.2PL0 Copyright (c) Steve Scherf et al.
# Submitted via: ExactAudioCopy v0.99pb5
#
DISCID=e2118710
DTITLE=Tom Waits - Chicago Theatre 082699 Disc 2
DYEAR=1999
DGENRE=Blues
TTITLE0=Muriel
TTITLE1=Picture in a Frame
TTITLE2=Innocent When You Dream
TTITLE3=Crowd Chatter 1
TTITLE4=Come on Up to the House
TTITLE5=16 Shells from a 30-06
TTITLE6=Shore Leave
TTITLE7=Cold Water
TTITLE8=Heart of Saturday Night
TTITLE9=I Don't Wanna Grow Up
TTITLE10=Filipino Box Spring Hog
TTITLE11=Crowd Chatter 2
TTITLE12=What's He Building
TTITLE13=Downtown Train
TTITLE14=In the Neighborhood
TTITLE15=Blue Valentine
EXTD=
EXTT0=
EXTT1=
EXTT2=
EXTT3=
EXTT4=
EXTT5=
EXTT6=
EXTT7=
EXTT8=
EXTT9=
EXTT10=
EXTT11=
EXTT12=
EXTT13=
EXTT14=
EXTT15=
PLAYORDER=
